<svg width="300" height="300" viewBox="0 0 300 300" fill="none" xmlns="http://www.w3.org/2000/svg">
<path d="M291.937 150C291.937 232.842 226.585 299.999 145.968 299.999C65.3523 299.999 0 232.842 0 150C0 67.1571 65.3523 0 145.968 0C226.585 0 291.937 67.1571 291.937 150Z" fill="#7F7AEE" fill-opacity="0.3"/>
<path d="M116.699 82.3234C116.699 89.7632 113.818 96.9018 108.694 102.18L100.281 110.825C95.1574 116.091 92.2767 123.229 92.2767 130.682V132.896C92.2767 148.404 104.513 160.966 119.592 160.966H171.138C186.23 160.966 198.453 148.391 198.453 132.896V130.25C198.453 126.452 196.987 122.823 194.374 120.138L187.746 113.327C185.133 110.642 183.668 107.001 183.668 103.215C183.668 99.4297 182.202 95.7884 179.589 93.1033L174.35 87.7068" fill="black"/>
<path d="M116.486 138.953H177.149L184.768 142.82C214.893 158.111 238.028 184.874 249.253 217.418L260.649 250.457C268.94 274.494 251.592 299.728 226.775 299.728H63.0072C38.6567 299.728 21.3548 275.368 28.7787 251.536L37.4961 223.552C48.7647 187.378 74.5856 157.905 108.415 142.603L116.486 138.953Z" fill="#7F7AEE"/>
<path d="M177.346 139.197L151.012 184.412C149.202 187.516 144.83 187.516 143.033 184.412L116.712 139.197L127.559 78.3813H166.499L177.346 139.197Z" fill="#F4C9B8"/>
<path d="M173.572 117.991C171.621 119.707 169.454 121.16 167.122 122.326C163.158 124.304 158.697 125.404 153.993 125.404C148.704 125.404 143.745 124.003 139.424 121.54C138.035 120.741 138.863 118.554 140.393 118.908C142.522 119.392 144.739 119.654 147.008 119.654C157.103 119.654 166.077 114.546 171.545 106.687L173.572 117.991Z" fill="#CEA193"/>
<path d="M123.658 71.8972C123.658 67.9416 120.536 64.7325 116.686 64.7325C112.837 64.7325 109.714 67.9416 109.714 71.8972C109.714 75.8529 112.837 82.3235 116.686 82.3235C120.536 82.3235 123.658 75.866 123.658 71.8972Z" fill="#F4C9B8"/>
<path d="M184.317 71.8972C184.317 67.9416 181.195 64.7325 177.345 64.7325C173.496 64.7325 170.373 67.9416 170.373 71.8972C170.373 75.8529 173.496 82.3235 177.345 82.3235C181.195 82.3235 184.317 75.866 184.317 71.8972Z" fill="#F4C9B8"/>
<path d="M147.021 119.653C130.845 119.653 117.564 106.529 116.914 89.9331L115.881 63.6055C115.168 45.4251 129.316 30.2966 147.021 30.2966C164.725 30.2966 178.873 45.4251 178.16 63.6055L177.127 89.9331C176.477 106.542 163.196 119.653 147.021 119.653Z" fill="#F4C9B8"/>
<path d="M178.186 62.3093V63.6061L178.161 63.5537V63.6061L177.765 76.0756C177.727 77.0318 176.975 77.7915 176.045 77.7915H175.28C174.872 77.7915 174.464 77.6343 174.146 77.3593L150.807 56.533C148.385 54.3718 145.262 53.1667 142.05 53.1667H135.167C128.807 53.1667 123.326 57.7773 122.077 64.1955L119.706 76.3769C119.553 77.2152 118.827 77.8046 118.011 77.8046C117.08 77.8046 116.303 77.0449 116.277 76.0756L115.895 63.6716C115.895 63.6716 115.895 63.5668 115.895 63.5275V62.8857C115.895 45.3863 129.342 30.6639 146.371 30.2971C163.885 29.9173 178.199 44.3909 178.199 62.2962L178.186 62.3093Z" fill="black"/>
<path d="M212.566 300H79.0357C72.3906 300 67.0034 294.464 67.0034 287.635V209.418C67.0034 202.589 72.3906 197.053 79.0357 197.053H212.566C219.211 197.053 224.598 202.589 224.598 209.418V287.635C224.598 294.464 219.211 300 212.566 300Z" fill="#C3DCF4"/>
<path d="M153.764 248.53C153.764 244.012 150.198 240.348 145.801 240.348C141.405 240.348 137.833 244.012 137.833 248.53C137.833 253.047 141.399 256.712 145.801 256.712C150.204 256.712 153.764 253.047 153.764 248.53Z" fill="white"/>
<path d="M137.241 88.0239C137.241 90.5949 136.923 92.6771 135.963 92.6771C135.003 92.6771 134.686 90.5949 134.686 88.0239C134.686 85.4528 135.003 83.3706 135.963 83.3706C136.923 83.3706 137.241 85.4528 137.241 88.0239Z" fill="black"/>
<path d="M159.501 88.0239C159.501 90.5949 159.183 92.6771 158.223 92.6771C157.263 92.6771 156.946 90.5949 156.946 88.0239C156.946 85.4528 157.263 83.3706 158.223 83.3706C159.183 83.3706 159.501 85.4528 159.501 88.0239Z" fill="black"/>
<path d="M138.948 77.892C139.374 77.5526 139.644 77.0281 139.638 76.4418C139.626 75.4668 138.851 74.6646 137.891 74.6708C137.704 74.672 133.651 74.7263 129.928 77.929C129.183 78.5646 129.087 79.6815 129.706 80.4591C130.324 81.2181 131.423 81.3168 132.168 80.6812C134.888 78.3301 137.877 78.2814 137.915 78.2808C138.299 78.2746 138.653 78.108 138.948 77.892Z" fill="black"/>
<path d="M155.317 77.892C154.891 77.5526 154.621 77.0281 154.627 76.4418C154.639 75.4668 155.413 74.6646 156.374 74.6708C156.561 74.672 160.614 74.7263 164.337 77.929C165.081 78.5646 165.178 79.6815 164.559 80.4591C163.941 81.2181 162.842 81.3168 162.097 80.6812C159.377 78.3301 156.388 78.2814 156.35 78.2808C155.966 78.2746 155.612 78.108 155.317 77.892Z" fill="black"/>
<path d="M147.538 105.396C146.941 105.231 146.384 105.532 146.202 106.063C146.008 106.616 146.299 107.24 146.839 107.433C147.09 107.521 147.348 107.605 147.603 107.675C152.516 109.028 158.319 106.659 160.833 102.285C160.973 102.036 161.011 101.746 160.941 101.465C160.872 101.184 160.702 100.952 160.455 100.801C160.376 100.747 160.291 100.717 160.192 100.69C159.734 100.564 159.251 100.77 159.011 101.189C156.959 104.77 152.19 106.702 148.135 105.586C147.932 105.53 147.724 105.473 147.528 105.387L147.525 105.399L147.538 105.396Z" fill="black"/>
<path d="M254.843 22.9403C255.131 19.9511 252.958 17.2771 249.989 16.9677L227.751 14.6506C226.326 14.5021 224.904 14.9295 223.798 15.839L214.38 23.5844C213.274 24.4944 212.574 25.8124 212.436 27.2483L208.712 65.8955C208.424 68.8847 210.597 71.5587 213.566 71.868L244.388 75.0798C247.357 75.3892 249.998 73.2167 250.286 70.2275L254.843 22.9403Z" fill="#7F7AEE"/>
<path d="M213.4 25.0871L220.481 25.8331C222.688 26.0656 224.651 24.434 224.865 22.1887L225.553 14.9868C224.806 15.2426 224.104 15.6342 223.483 16.1504L214.937 23.2501C214.314 23.7679 213.795 24.3917 213.4 25.0871Z" fill="#5955BC"/>
<path d="M246.549 37.0821C246.635 36.2295 246.013 35.4638 245.158 35.372L220.402 32.711C219.547 32.6191 218.784 33.2359 218.698 34.0885C218.611 34.9412 219.234 35.7069 220.088 35.7987L244.845 38.4597C245.7 38.5515 246.463 37.9348 246.549 37.0821Z" fill="#5955BC"/>
<path d="M245.904 43.3495C245.99 42.4969 245.368 41.7312 244.513 41.6394L219.756 38.9784C218.902 38.8866 218.139 39.5033 218.053 40.3559C217.966 41.2086 218.589 41.9742 219.443 42.0661L244.2 44.7271C245.055 44.8189 245.817 44.2022 245.904 43.3495Z" fill="#5955BC"/>
<path d="M245.256 49.6163C245.343 48.7637 244.72 47.998 243.866 47.9061L219.109 45.2452C218.254 45.1533 217.491 45.7701 217.405 46.6227C217.319 47.4754 217.941 48.241 218.796 48.3329L243.552 50.9938C244.407 51.0857 245.17 50.4689 245.256 49.6163Z" fill="#5955BC"/>
<path d="M244.61 55.8847C244.697 55.0321 244.074 54.2664 243.219 54.1746L218.463 51.5136C217.608 51.4218 216.845 52.0385 216.759 52.8912C216.672 53.7438 217.295 54.5095 218.15 54.6013L242.906 57.2623C243.761 57.3541 244.524 56.7374 244.61 55.8847Z" fill="#5955BC"/>
<path d="M243.962 62.1515C244.049 61.2989 243.426 60.5332 242.571 60.4414L217.815 57.7804C216.96 57.6886 216.197 58.3053 216.111 59.1579C216.024 60.0106 216.647 60.7762 217.502 60.8681L242.258 63.5291C243.113 63.6209 243.876 63.0042 243.962 62.1515Z" fill="#5955BC"/>
<path d="M284.366 69.0173C285.671 66.3123 284.564 63.0479 281.894 61.726L261.893 51.8248C260.611 51.1902 259.133 51.0973 257.784 51.5664L246.29 55.5623C244.939 56.0318 243.829 57.0256 243.202 58.325L226.33 93.2978C225.025 96.0028 226.132 99.2672 228.802 100.589L256.525 114.313C259.195 115.635 262.417 114.514 263.722 111.809L284.366 69.0173Z" fill="#F64F64"/>
<path d="M244.717 56.5642L251.119 59.7336C253.115 60.7214 255.523 59.8836 256.498 57.8621L259.626 51.3782C258.836 51.3563 258.041 51.4767 257.278 51.7417L246.796 55.386C246.031 55.6518 245.329 56.0531 244.717 56.5642Z" fill="#900617"/>
<path d="M242.417 88.7252L241.119 88.0428C239.871 87.3869 239.247 87.0589 239.038 86.6145C238.856 86.2274 238.85 85.7789 239.022 85.3871C239.22 84.9374 239.835 84.5933 241.066 83.9052L247.946 80.0596C248.963 79.491 249.472 79.2066 249.91 79.2447C250.293 79.2779 250.647 79.464 250.894 79.7621C251.177 80.103 251.241 80.688 251.368 81.8578L251.58 83.8137L242.417 88.7252Z" fill="#900617"/>
<path d="M263.075 81.2413L264.99 96.4394C265.172 97.8784 265.262 98.5979 265.016 99.0274C264.802 99.4014 264.436 99.6605 264.015 99.7355C263.533 99.8217 262.897 99.4876 261.626 98.8196L242.417 88.7252L259.693 79.4643C260.687 78.9317 261.184 78.6654 261.613 78.7058C261.989 78.7411 262.336 78.9236 262.581 79.2144C262.861 79.5469 262.932 80.1117 263.075 81.2413Z" fill="#900617"/>
<path d="M251.703 73.778C249.574 72.659 248.743 70.0032 249.848 67.8462C250.952 65.6891 253.574 64.8476 255.703 65.9666C257.833 67.0857 258.663 69.7414 257.559 71.8985C256.454 74.0555 253.832 74.897 251.703 73.778Z" fill="#900617"/>
<path d="M263.075 81.2415L264.99 96.4396C265.172 97.8786 265.262 98.5982 265.016 99.0276C264.802 99.4016 264.436 99.6607 264.015 99.7358C263.533 99.8219 262.897 99.4879 261.626 98.8198L242.417 88.7253L259.693 79.4645C260.687 78.932 261.184 78.6657 261.613 78.706C261.989 78.7413 262.336 78.9238 262.581 79.2147C262.861 79.5472 262.932 80.1119 263.075 81.2415Z" fill="#900617"/>
</svg>
