<svg width="300" height="300" viewBox="0 0 300 300" fill="none" xmlns="http://www.w3.org/2000/svg">
<path d="M62.6181 271.146C62.6181 271.146 59.2049 276.25 58.3129 280.786L74.245 286.959C77.4941 288.218 80.9466 288.827 84.4172 288.753L95.3837 288.52C96.22 284.267 78.7348 278.608 79.5093 274.67L62.6181 271.146Z" fill="#3D3D3D"/>
<path d="M190.386 277.471C190.386 277.471 187.556 282.94 187.168 287.551L203.676 291.826C207.043 292.698 210.54 292.9 213.98 292.422L224.851 290.911C225.214 286.588 207.219 283.005 207.556 279.002L190.386 277.471Z" fill="#3D3D3D"/>
<path d="M253.465 144.078C253.465 206.071 204.673 256.326 144.486 256.326C84.298 256.326 35.5061 206.071 35.5061 144.078C35.5061 82.0851 84.298 31.83 144.486 31.83C204.673 31.83 253.465 82.0851 253.465 144.078Z" fill="#7F7AEE" fill-opacity="0.3"/>
<path d="M88.4189 96.5041C86.7438 94.9497 84.1625 95.0882 82.6534 96.8135C81.1442 98.5387 81.2787 101.197 82.9537 102.752L120.749 137.825C122.424 139.38 125.005 139.241 126.514 137.516C128.023 135.791 127.889 133.132 126.214 131.578L88.4189 96.5041Z" fill="black"/>
<path d="M107.443 84.9723C106.442 82.8911 103.994 82.0392 101.973 83.0695C99.9524 84.0999 99.1253 86.6222 100.126 88.7034L122.697 135.662C123.697 137.743 126.146 138.595 128.166 137.565C130.187 136.534 131.014 134.012 130.014 131.931L107.443 84.9723Z" fill="black"/>
<g clip-path="url(#clip0_662_2363)">
<path d="M124.512 101.059L140.64 91.5782C141.146 91.2807 141.322 90.6171 141.033 90.096L138.564 85.6393C138.275 85.1182 137.631 84.9369 137.125 85.2343L120.996 94.7156C120.49 95.013 120.314 95.6766 120.603 96.1978L123.073 100.654C123.362 101.176 124.006 101.357 124.512 101.059Z" fill="#E2F1FF"/>
<path d="M121.353 98.5473L137.481 89.066C137.987 88.7685 138.163 88.1049 137.874 87.5838L135.405 83.1271C135.116 82.606 134.472 82.4247 133.966 82.7221L117.837 92.2034C117.331 92.5008 117.155 93.1644 117.444 93.6856L119.914 98.1422C120.202 98.6634 120.847 98.8447 121.353 98.5473Z" fill="white"/>
</g>
<path d="M137.769 231.421L156.39 184.148L121.151 184.148L107.869 218.803L61.937 263.57C58.7618 266.665 60.4367 272.168 64.7589 272.841L95.1799 277.582C96.8387 277.841 98.5174 277.267 99.697 276.038L128.268 246.275C132.355 242.017 135.584 236.969 137.769 231.421Z" fill="black"/>
<path d="M188.87 200.797L151.087 175.953L128.545 187.188L180.88 230.286L188.321 274.322C188.696 276.545 190.506 278.21 192.693 278.344L221.609 280.122C225.076 280.335 227.574 276.751 226.267 273.436L205.997 221.993C202.559 213.27 196.574 205.863 188.87 200.797Z" fill="black"/>
<path d="M137.146 136.996L142.416 139.179L150.917 136.44L146.751 110.452C147 109.845 151.54 100.132 150.877 100.235L141.994 99.9875L148.929 85.3447L136.609 95.5106C123.631 106.221 123.895 126.647 137.146 136.996Lnan nanL137.146 136.996Z" fill="#E3E3E3"/>
<path d="M180.812 75.61C180.812 75.61 174.688 82.0144 174.548 82.2072L178.137 97.8855L184.538 79.766L180.812 75.61Z" fill="#FFBD6E"/>
<path d="M180.556 100.714L180.723 75.382L151.968 106.255L157.956 123.575L171.271 116.396C176.942 113.338 180.513 107.307 180.556 100.714Z" fill="#F8F8F8"/>
<path d="M197.771 68.9818C198.42 67.9681 198.677 66.7412 198.492 65.5421L198.088 62.9185C197.719 60.5213 195.284 59.0971 193.096 59.9981L192.907 60.0758C191.374 60.7072 190.028 61.7415 189.004 63.0757L184.053 69.5249L180.553 70.8024L180.688 76.2016L184.517 79.9426L187.518 79.544C189.943 79.222 192.11 77.8279 193.455 75.7258L197.771 68.9818Z" fill="#FFBD6E"/>
<path d="M183.476 67.2464C183.41 66.3249 182.631 65.6331 181.736 65.7012C180.842 65.7692 180.17 66.5714 180.236 67.4928L180.599 72.5577C180.665 73.4791 181.444 74.1709 182.339 74.1029C183.233 74.0348 183.905 73.2326 183.839 72.3112L183.476 67.2464Z" fill="#FFBD6E"/>
<path d="M160.311 125.193C159.085 116.459 153.842 97.2484 153.976 95.455L130.949 86.3792L113.521 135.705L160.311 125.193Z" fill="black"/>
<path d="M174.227 188.252L163.569 133.247C161.529 122.72 154.511 113.942 144.871 109.862Lnan nanL144.871 109.862C144.871 109.862 138.396 107.589 133.619 109.862C125.379 114.682 126.581 118.105 126.581 118.105L124.182 182.033L174.227 188.252Z" fill="#F8F8F8"/>
<path d="M187.271 189.64L169.479 164.587L124.696 173.442L118.408 191.285L118.752 191.097C124.623 187.9 131.896 190.451 134.653 196.673L142.695 214.824C143.578 216.818 145.917 217.624 147.788 216.579L186.058 195.2C188.013 194.108 188.585 191.49 187.271 189.64Z" fill="#F8F8F8"/>
<path d="M133.155 110.26L144.603 102.054L151.873 110.26L155.957 124.591C156.17 126.365 154.123 127.448 152.855 126.236L133.155 110.26Z" fill="#FFBD6E"/>
<path d="M133.022 110.198C134.807 110.973 152.808 120.807 152.808 114.5L153.581 105.02L133.022 90.477V110.198Z" fill="#FFBD6E"/>
<path d="M152.893 91.4852C152.893 89.8109 154.208 88.4632 155.827 88.4632C157.446 88.4632 158.763 89.8109 158.763 91.4852C158.763 93.1596 157.448 95.8784 155.827 95.8784C154.205 95.8784 152.893 93.1492 152.893 91.4852Z" fill="#FFBD6E"/>
<path d="M128.907 91.4852C128.907 89.8109 130.222 88.4631 131.843 88.4631C133.465 88.4631 134.779 89.8109 134.779 91.4852C134.779 93.1595 133.465 95.8783 131.843 95.8783C130.222 95.8783 128.907 93.1491 128.907 91.4852Z" fill="#FFBD6E"/>
<path d="M143.837 105.505C150.651 105.505 156.246 99.9685 156.518 92.968L156.948 85.8794C157.248 78.2103 151.288 71.824 143.835 71.824C136.381 71.824 130.424 78.2103 130.721 85.8794L131.152 92.968C131.424 99.9685 137.021 105.505 143.835 105.505H143.837Z" fill="black"/>
<path d="M142.578 112.379C142.042 112.225 142.239 111.6 142.796 111.614C142.9 111.616 143.004 111.618 143.109 111.618H143.111C147.671 111.618 151.329 109.786 153.568 106.048L153.097 110.738C150.964 112.412 149.13 112.868 146.25 112.868C145.104 112.868 143.798 112.728 142.578 112.379Z" fill="#E59A48"/>
<path d="M143.837 111.012C150.651 111.012 156.246 105.476 156.518 98.4751L156.948 91.3865C157.248 83.7173 151.288 77.3311 143.835 77.3311C136.381 77.3311 130.424 83.7173 130.721 91.3865L131.152 98.4751C131.424 105.476 137.021 111.012 143.835 111.012H143.837Z" fill="#FFBD6E"/>
<path d="M148.112 97.6926C148.112 98.7719 148.245 99.646 148.648 99.646C149.05 99.646 149.183 98.7719 149.183 97.6926C149.183 96.6132 149.05 95.7391 148.648 95.7391C148.245 95.7391 148.112 96.6132 148.112 97.6926Z" fill="black"/>
<path d="M138.783 97.6925C138.783 98.7718 138.916 99.646 139.318 99.646C139.721 99.646 139.854 98.7718 139.854 97.6925C139.854 96.6131 139.721 95.739 139.318 95.739C138.916 95.739 138.783 96.6131 138.783 97.6925Z" fill="black"/>
<path fill-rule="evenodd" clip-rule="evenodd" d="M146.003 106.25C146.229 106.338 146.482 106.221 146.569 105.988C146.656 105.754 146.542 105.492 146.315 105.402C146.261 105.381 146.205 105.364 146.149 105.349C146.051 105.32 145.909 105.285 145.72 105.25C145.343 105.18 144.781 105.113 144.012 105.113C143.243 105.113 142.681 105.18 142.303 105.25C142.115 105.285 141.973 105.32 141.875 105.349C141.819 105.365 141.764 105.383 141.709 105.402C141.482 105.492 141.368 105.754 141.455 105.988C141.542 106.221 141.795 106.338 142.021 106.25C142.021 106.25 142.021 106.25 142.022 106.25C142.028 106.248 142.057 106.237 142.11 106.222C142.182 106.202 142.297 106.172 142.459 106.142C142.783 106.083 143.293 106.02 144.012 106.02C144.731 106.02 145.241 106.083 145.565 106.142C145.727 106.172 145.842 106.202 145.913 106.222C145.967 106.237 145.996 106.248 146.002 106.25C146.002 106.25 146.003 106.25 146.003 106.25Z" fill="black"/>
<path d="M137.286 92.9783C137.134 92.8055 137.06 92.568 137.105 92.326C137.18 91.9238 137.557 91.6512 137.953 91.7271C138.03 91.7418 139.699 92.0735 141.005 93.6817C141.267 94.0013 141.226 94.4705 140.915 94.7448C140.605 95.0114 140.145 94.9684 139.883 94.6488C138.929 93.4692 137.7 93.221 137.684 93.2179C137.526 93.186 137.392 93.0901 137.286 92.9783Z" fill="black"/>
<path d="M150.547 93.9341C150.698 93.7613 150.772 93.5238 150.728 93.2818C150.653 92.8796 150.275 92.607 149.879 92.6829C149.802 92.6977 148.134 93.0293 146.827 94.6375C146.566 94.9571 146.606 95.4263 146.917 95.7006C147.227 95.9672 147.688 95.9242 147.949 95.6046C148.903 94.425 150.133 94.1768 150.148 94.1737C150.307 94.1418 150.441 94.0459 150.547 93.9341Z" fill="black"/>
<path d="M130.793 91.2757V85.33H130.803C130.803 77.876 136.68 71.8241 143.926 71.8241C151.173 71.8241 157.052 77.876 157.052 85.33V91.2679C157.052 91.8536 156.592 92.3383 156.018 92.3383C155.444 92.3383 154.98 91.8536 154.98 91.2679C154.98 90.9076 154.963 90.5396 154.927 90.1689C154.927 88.8843 154.668 88.0732 154.361 87.563C153.905 86.8059 152.943 86.9226 152.096 87.104C147.301 88.1308 139.458 85.5283 139.458 81.0707C139.321 82.5908 138.526 83.2574 137.183 83.9508C136.087 84.5169 134.998 85.3066 133.776 85.4088Lnan nanL133.776 85.4088C132.834 85.4876 132.865 89.6551 132.865 90.099V91.2757C132.865 91.864 132.402 92.3383 131.83 92.3383C131.259 92.3383 130.793 91.864 130.793 91.2757Z" fill="black"/>
<path d="M157.802 81.777C157.802 80.2844 156.627 79.0743 155.178 79.0743H133.222C131.773 79.0743 130.598 80.2844 130.598 81.777V84.8304C130.598 86.3231 131.773 87.5331 133.222 87.5331H155.178C156.627 87.5331 157.802 86.3231 157.802 84.8304V81.777Z" fill="#F8F8F8"/>
<path d="M161.719 172.148L159.544 173.494C158.61 174.072 158.261 175.29 158.739 176.297L168.166 196.157C168.736 197.356 170.215 197.743 171.271 196.968L176.914 192.825C177.941 192.071 178.095 190.561 177.243 189.603L161.719 172.148Z" fill="black"/>
<path d="M162.471 175.016L159.972 174.558C158.899 174.361 157.859 175.042 157.576 176.125L152.003 197.472C151.666 198.762 152.533 200.055 153.824 200.186L160.721 200.886C161.975 201.013 163.055 199.98 163.025 198.682L162.471 175.016Z" fill="black"/>
<path d="M143.039 168.372L137.532 133.618C137.712 133 137.111 132.409 136.476 132.582L127.811 133.314C127.811 133.314 130.037 117.204 132.932 110.113C124.425 112.827 112.713 131.867 107.445 138.354C98.7244 149.091 102.41 162.75 115.249 166.419C126.443 168.686 132.343 168.299 143.039 168.372Z" fill="#F8F8F8"/>
<path d="M167.086 149.75L151.647 150.668L141.447 163.699Lnan nanL141.447 163.699C139.781 164.037 139.996 166.558 141.694 166.591L150.066 166.756C158.578 166.923 165.832 160.428 166.854 151.722L167.086 149.75Z" fill="#E3E3E3"/>
<path d="M161.56 147.117C161.785 148.375 173.067 146.934 173.067 146.934C173.067 146.934 184.475 143.308 182.287 146.45L177.69 149.124C173.752 151.415 169.289 152.572 164.768 152.473L162.508 152.424L161.815 149.828" fill="#FFBD6E"/>
<path d="M168.22 145.257C168.725 144.79 168.796 144.001 168.383 143.445Lnan nanL168.383 143.445C168.051 142.998 167.455 142.86 166.968 143.117L158.851 147.412L158.453 152.196L162.362 152.476L166.627 147.62L166.555 147.218C166.515 146.995 166.591 146.765 166.755 146.613L168.22 145.257Z" fill="#FFBD6E"/>
<path d="M158.357 146.26L127.97 166.824L149.238 164.141C155.995 163.288 160.573 156.629 159.11 149.781L158.357 146.26Z" fill="#F8F8F8"/>
<path d="M170.28 163.445C170.07 162.989 169.231 162.966 168.884 163.324C164.211 168.139 140.554 174.964 126.33 168.995C124.988 168.432 123.384 169.193 123.115 170.659L122.605 173.443C122.312 175.037 123.208 176.618 124.725 177.054C145.054 182.891 166.772 176.381 171.966 170.173C172.585 169.433 172.563 168.382 172.155 167.5L170.28 163.445Z" fill="black"/>
<path d="M69.6381 16.3462H59.4087C57.1906 16.3462 55.1402 17.5631 54.0273 19.5494L48.9128 28.6801C47.8 30.6585 47.8 33.1 48.9128 35.0785L54.0273 44.2089C55.1402 46.1874 57.1906 47.4122 59.4087 47.4122H69.6381C71.8562 47.4122 73.9063 46.1952 75.0191 44.2089L80.1337 35.0785C81.2465 33.1 81.2465 30.6585 80.1337 28.6801L75.0191 19.5494C73.9063 17.571 71.8562 16.3462 69.6381 16.3462Z" fill="#FF7059"/>
<path d="M258.934 8.35512L237.347 14.3126C232.667 15.6044 229.012 19.3817 227.76 24.2461L222.01 46.6062C220.754 51.4538 222.102 56.6364 225.543 60.1879L241.378 76.5903C244.818 80.1417 249.822 81.5474 254.502 80.2556L276.089 74.2981C280.769 73.0064 284.423 69.2292 285.675 64.3649L291.426 42.0052C292.681 37.1576 291.333 31.9749 287.892 28.4235L272.058 12.0207C268.617 8.46925 263.614 7.06333 258.934 8.35512Z" fill="#FF7059"/>
<path d="M40.6794 213.462L26.6418 209.588C23.5979 208.748 20.3497 209.642 18.1135 211.946L7.83533 222.539C5.6019 224.832 4.73028 228.183 5.55114 231.319L9.31016 245.786C10.131 248.922 12.5076 251.379 15.5514 252.219L29.589 256.094C32.6328 256.934 35.8806 256.04 38.1168 253.736L48.3949 243.143C50.6283 240.85 51.4999 237.499 50.6791 234.363L46.9201 219.896C46.0993 216.76 43.7232 214.302 40.6794 213.462Z" fill="#FF7059"/>
<defs>
<clipPath id="clip0_662_2363">
<rect width="23.6521" height="19.3266" fill="white" transform="matrix(0.997487 0.0708426 -0.0667959 0.997767 118.088 81.4111)"/>
</clipPath>
</defs>
</svg>
