<svg width="300" height="300" viewBox="0 0 300 300" fill="none" xmlns="http://www.w3.org/2000/svg">
<path d="M300 150C300 232.843 232.843 300 150 300C67.1573 300 0 232.843 0 150C0 67.1573 67.1573 0 150 0C232.843 0 300 67.1573 300 150Z" fill="#7F7AEE"/>
<mask id="mask0_662_2334" style="mask-type:alpha" maskUnits="userSpaceOnUse" x="0" y="0" width="300" height="300">
<path d="M300 150C300 232.843 232.843 300 150 300C67.1573 300 0 232.843 0 150C0 67.1573 67.1573 0 150 0C232.843 0 300 67.1573 300 150Z" fill="#E2F1FF"/>
</mask>
<g mask="url(#mask0_662_2334)">
<path d="M202.288 29.4614H102.138C98.4481 29.4614 95.4568 32.4102 95.4568 36.0477V251.891C95.4568 255.529 98.4481 258.478 102.138 258.478H202.288C205.978 258.478 208.969 255.529 208.969 251.891V36.0477C208.969 32.4102 205.978 29.4614 202.288 29.4614Z" fill="#F8F8F8"/>
<path d="M207.595 92.1817C209.143 90.8155 210.049 90.0242 210.049 90.0242C215.443 85.2311 223.562 85.1287 229.117 89.7055C234.724 94.3392 235.954 102.394 231.999 108.457C231.999 108.457 214.744 134.944 208.172 144.952" fill="#FFBC6E"/>
<path d="M169.563 256.28C169.667 275.555 173.726 301.024 173.726 301.024L80.3446 301.462L80.0212 235.525C80.0212 235.525 87.1818 235.468 97.4375 235.423L93.6956 245.163L101.174 255.751L169.557 256.28H169.563Z" fill="#FFBC6E"/>
<path d="M92.9964 159.012C77.4511 168.758 64.256 176.972 64.256 176.972C64.7353 179.391 65.2724 181.816 65.7517 184.242C66.9297 189.877 68.102 195.513 69.2742 201.148C70.6081 207.524 71.9479 213.951 73.2818 220.315C74.2462 225.057 75.2567 229.793 76.2211 234.484C78.2538 244.173 84.7156 252.916 92.5691 258.922C99.7816 264.449 108.651 267.768 117.787 268.241C118.694 268.297 119.554 268.297 120.461 268.297L122.228 279.62C135.584 279.563 159.994 270.193 179.552 257.658L115.125 259.662L101.231 255.762L93.7529 245.174L93.008 159.012H92.9964Z" fill="#FFBC6E"/>
<path d="M204.234 178.395C207.814 178.338 211.395 179.448 214.328 181.925L219.081 185.875C225.548 191.192 226.345 200.676 220.952 206.989C220.952 206.989 214.807 214.258 208.877 221.158" fill="#FFBC6E"/>
<path d="M207.491 138.155C213.583 135.736 220.738 136.629 226.137 141.053C233.881 147.479 234.903 158.853 228.384 166.487L209.685 188.449C209.206 189.029 208.617 189.553 208.034 190.031" fill="#FFBC6E"/>
<path d="M91.4489 174.234L83.9707 183.61C83.4915 184.19 83.5954 185.033 84.1844 185.505C84.6117 185.875 85.2527 185.927 85.732 185.608L95.2428 180.291L91.4489 174.234Z" fill="#E49948"/>
<path d="M82.1583 146.324C81.2517 150.485 80.7147 154.749 80.553 159.012L82.1583 146.324Z" fill="#F7F7F7"/>
<path d="M166.41 40.4085C167.767 40.4085 168.864 39.3269 168.864 37.9892C168.864 36.6514 167.767 35.5698 166.41 35.5698C165.053 35.5698 163.956 36.6514 163.956 37.9892C163.956 39.3269 165.053 40.4085 166.41 40.4085Z" fill="#3D3D3D"/>
<path d="M140.603 36.7819L157.754 36.6794C158.447 36.6794 158.984 37.2088 158.984 37.892C158.984 38.5751 158.447 39.1045 157.754 39.1045L140.603 39.2069C139.904 39.2069 139.373 38.6775 139.373 37.9944C139.373 37.3113 139.91 36.7819 140.603 36.7819Z" fill="#3D3D3D"/>
<path d="M80.3906 243.432L79.6457 243.751C79.6457 243.751 80.021 244.28 80.021 245.225L80.61 244.964" fill="#FFBC6E"/>
<path d="M213.363 43.3627C213.305 32.0402 203.956 22.9265 192.47 22.9834L110.834 23.3534C99.3486 23.4104 90.1034 32.6266 90.1612 43.949L91.1255 241.918C91.1833 253.241 100.532 262.354 112.018 262.298L193.654 261.928C205.14 261.871 214.385 252.654 214.327 241.332L213.363 43.3627ZM191.991 255.022L113.67 255.393C105.123 255.449 98.1764 248.653 98.1244 240.228L97.16 45.5259C97.1023 37.1009 103.997 30.2585 112.544 30.2016L190.865 29.8828C199.412 29.8258 206.358 36.6227 206.41 45.0477L207.375 239.749C207.375 248.123 200.48 254.971 191.991 255.017V255.022Z" fill="#3D3D3D"/>
<path d="M76.8687 195.302C60.2551 182.978 58.3321 159.12 72.7572 144.377L89.4805 127.259C91.4555 125.255 94.6084 124.994 96.8548 126.679C107.059 134.153 109.461 148.27 102.248 158.648L76.8745 195.302H76.8687Z" fill="#FFBC6E"/>
<path d="M228.002 166.282C234.256 158.961 233.292 148.008 225.813 141.843L224.745 140.95C217.319 134.785 206.209 135.735 199.955 143.107C199.689 143.426 199.418 143.739 199.21 144.058C191.945 153.906 200.012 167.705 212.301 167.073L228.008 166.282H228.002Z" fill="#FFBC6E"/>
<path d="M221.91 205.731C228.164 198.41 227.199 187.458 219.721 181.293L218.653 180.399C211.227 174.234 200.116 175.185 193.862 182.557C193.597 182.875 193.325 183.188 193.117 183.507C185.853 193.355 193.92 207.154 206.209 206.522L221.916 205.731H221.91Z" fill="#FFBC6E"/>
<path d="M171.694 262.394C171.694 262.394 169.505 263.607 169.609 266.396L168.165 265.183C168.165 265.183 169.182 262.918 169.13 262.918C169.072 262.918 171.699 262.388 171.699 262.388H171.694V262.394Z" fill="#FFBC6E"/>
<path d="M168.16 124.629L168.119 109.22C168.096 100.584 160.93 93.5766 152.141 93.5993C143.352 93.6221 136.215 100.664 136.238 109.299L136.278 124.709C133.437 126.553 130.937 128.876 128.91 131.563L128.852 109.322C128.823 96.6904 139.258 86.3812 152.118 86.3527C164.978 86.3186 175.471 96.5765 175.499 109.208L175.557 131.449C173.519 128.774 171.013 126.468 168.154 124.635L168.16 124.629Z" fill="#6AADD7"/>
<path d="M166.97 115.618H137.577C126.737 115.618 117.949 124.281 117.949 134.967V161.027C117.949 171.714 126.737 180.376 137.577 180.376H166.97C177.81 180.376 186.598 171.714 186.598 161.027V134.967C186.598 124.281 177.81 115.618 166.97 115.618Z" fill="#94D0F8"/>
<path d="M145.118 141.974C145.107 138.047 148.294 134.859 152.238 134.847C156.183 134.836 159.387 138.012 159.399 141.94C159.405 144.513 158.036 146.773 155.986 148.026L156.009 156.553C156.009 158.585 154.352 160.253 152.308 160.253C150.269 160.253 148.595 158.602 148.589 156.57L148.566 148.043C146.504 146.802 145.13 144.548 145.118 141.974Z" fill="black"/>
</g>
</svg>
